
<svg version="1.1" xmlns="http://www.w3.org/2000/svg" xmlns:xlink="http://www.w3.org/1999/xlink" x="0px" y="0px" viewBox="0 0 256 256" xml:space="preserve">
  <g>
    <g>
      <path d="M 139.692 138.578 L 160.446 138.851 L 160.271 159.891 L 181.625 159.924 L 181.834 181.645 L 203.056 181.583 L 203.402 202.887 L 245.46 202.867 L 245.499 160.749 L 224.797 160.478 L 224.867 140.271 L 202.369 139.509 L 202.041 117.446 L 181.6 117.2 L 181.6 95.9 L 160.1 95.9 L 160.1 74.4 L 138.7 74.4 L 138.7 52.9 L 117.3 52.9 L 117.3 74.4 L 95.8 74.4 L 95.8 95.9 L 74.4 95.9 L 74.4 117.3 L 52.8 117.3 L 52.8 138.8 L 31.3 138.8 L 31.3 160.2 L 10 160.2 L 10 181.7 L 10 203.3 L 52.8 203.3 L 52.8 181.7 L 74.3 181.7 L 74.3 160.2 L 95.8 160.2 L 95.8 138.8 L 117.4 138.8 L 117.4 117.3 L 139 117.3 L 139.692 138.578 Z"/>
    </g>
  </g>
</svg>