<svg xmlns="http://www.w3.org/2000/svg" viewBox="0 -0.5 20 20" shape-rendering="crispEdges">
<path d="M0 0h20M0 1h1M19 1h1M0 2h1M19 2h1M0 3h1M3 3h6M11 3h6M19 3h1M0 4h1M3 4h6M11 4h6M19 4h1M0 5h1M3 5h6M11 5h6M19 5h1M0 6h1M3 6h6M11 6h6M19 6h1M0 7h1M3 7h6M11 7h6M19 7h1M0 8h1M3 8h6M11 8h6M19 8h1M0 9h1M19 9h1M0 10h1M19 10h1M0 11h1M3 11h6M11 11h6M19 11h1M0 12h1M3 12h6M11 12h6M19 12h1M0 13h1M3 13h6M11 13h6M19 13h1M0 14h1M3 14h6M11 14h6M19 14h1M0 15h1M3 15h6M11 15h6M19 15h1M0 16h1M3 16h6M11 16h6M19 16h1M0 17h1M19 17h1M0 18h1M19 18h1M0 19h20" />
</svg>