<svg xmlns="http://www.w3.org/2000/svg" fill="black" viewBox="0 -0.5 16 16" shape-rendering="crispEdges">
<path d="M2 0h12M1 1h1M14 1h1M0 2h1M4 2h8M15 2h1M0 3h1M3 3h1M12 3h1M15 3h1M0 4h1M2 4h1M13 4h1M15 4h1M0 5h1M2 5h1M7 5h2M10 5h1M13 5h1M15 5h1M0 6h1M2 6h1M6 6h1M9 6h1M13 6h1M15 6h1M0 7h1M2 7h1M5 7h1M10 7h1M13 7h1M15 7h1M0 8h1M2 8h1M5 8h1M10 8h1M13 8h1M15 8h1M0 9h1M2 9h1M6 9h1M9 9h1M13 9h1M15 9h1M0 10h1M2 10h1M7 10h2M13 10h1M15 10h1M0 11h1M2 11h1M13 11h1M15 11h1M0 12h1M3 12h1M12 12h1M15 12h1M0 13h1M4 13h8M15 13h1M1 14h1M14 14h1M2 15h12" />
</svg>