<svg xmlns="http://www.w3.org/2000/svg" viewBox="0 -0.5 25 28" shape-rendering="crispEdges">
<metadata>Made with Pixels to Svg https://codepen.io/shshaw/pen/XbxvNj</metadata>
<path stroke="#373735" d="M10 0h5M8 1h2M12 1h1M15 1h2M7 2h1M12 2h1M17 2h1M5 3h2M10 3h5M18 3h2M3 4h2M7 4h3M11 4h1M13 4h1M15 4h3M20 4h2M1 5h2M5 5h2M10 5h1M14 5h1M18 5h2M22 5h2M0 6h5M10 6h1M14 6h1M20 6h5M0 7h2M9 7h1M15 7h1M23 7h2M0 8h2M8 8h1M16 8h1M23 8h2M0 9h2M8 9h1M16 9h1M23 9h2M0 10h1M2 10h1M7 10h1M17 10h1M22 10h1M24 10h1M0 11h1M2 11h1M6 11h1M18 11h1M22 11h1M24 11h1M0 12h1M2 12h1M6 12h1M18 12h1M22 12h1M24 12h1M0 13h1M2 13h1M5 13h1M19 13h1M22 13h1M24 13h1M0 14h1M2 14h1M5 14h1M19 14h1M22 14h1M24 14h1M0 15h1M3 15h1M5 15h1M19 15h1M21 15h1M24 15h1M0 16h1M3 16h2M20 16h2M24 16h1M0 17h1M3 17h1M21 17h1M24 17h1M0 18h1M3 18h19M24 18h1M0 19h1M2 19h2M5 19h1M19 19h1M21 19h2M24 19h1M0 20h3M6 20h1M18 20h1M22 20h3M0 21h2M7 21h1M17 21h1M23 21h2M1 22h2M8 22h1M16 22h1M22 22h2M3 23h2M9 23h1M15 23h1M20 23h2M5 24h1M10 24h1M14 24h1M19 24h1M6 25h2M11 25h1M13 25h1M17 25h2M8 26h2M12 26h1M15 26h2M10 27h5" />
<path stroke="#000000" d="M10 1h2M13 1h2M10 2h2M13 2h2M16 2h1M7 3h2M15 3h1M17 3h1M5 4h1M10 4h1M12 4h1M14 4h1M18 4h2M3 5h2M7 5h3M11 5h3M15 5h3M20 5h2M5 6h5M11 6h3M15 6h5M2 7h7M10 7h5M16 7h3M20 7h3M2 8h1M5 8h3M9 8h7M17 8h1M19 8h1M21 8h2M2 9h1M4 9h1M6 9h2M9 9h7M18 9h1M20 9h1M22 9h1M1 10h1M3 10h3M8 10h3M14 10h3M18 10h2M21 10h1M23 10h1M1 11h1M3 11h3M7 11h3M11 11h3M15 11h3M20 11h2M23 11h1M1 12h1M3 12h3M7 12h3M11 12h3M15 12h3M19 12h3M23 12h1M1 13h1M3 13h2M6 13h5M15 13h4M20 13h2M23 13h1M1 14h1M3 14h2M6 14h8M15 14h4M20 14h2M23 14h1M1 15h2M4 15h1M6 15h4M14 15h5M20 15h1M22 15h1M2 16h1M5 16h15M22 16h2M1 17h1M4 17h17M22 17h2M2 18h1M22 18h2M1 19h1M4 19h1M6 19h5M15 19h4M20 19h1M23 19h1M3 20h3M7 20h4M12 20h6M19 20h3M2 21h3M8 21h4M14 21h3M18 21h1M21 21h2M3 22h1M5 22h1M7 22h1M9 22h2M14 22h2M17 22h1M20 22h2M6 23h2M10 23h5M18 23h2M6 24h1M9 24h1M11 24h3M16 24h3M8 25h3M12 25h1M14 25h3M10 26h2M13 26h2" />
<path stroke="#ffffff" d="M8 2h2M15 2h1M9 3h1M16 3h1M6 4h1M19 7h1M3 8h2M18 8h1M20 8h1M3 9h1M5 9h1M17 9h1M19 9h1M21 9h1M6 10h1M11 10h3M20 10h1M10 11h1M14 11h1M19 11h1M10 12h1M14 12h1M11 13h4M14 14h1M10 15h4M23 15h1M1 16h1M2 17h1M1 18h1M11 19h4M11 20h1M5 21h2M12 21h2M19 21h2M4 22h1M6 22h1M11 22h3M18 22h2M5 23h1M8 23h1M16 23h2M7 24h2M15 24h1" />
</svg>