<svg xmlns="http://www.w3.org/2000/svg" viewBox="0 -0.5 22 22" shape-rendering="crispEdges">
<path stroke="#000000" d="M4 0h7M3 1h1M11 1h1M2 2h1M12 2h1M1 3h1M13 3h1M0 4h1M14 4h1M0 5h1M14 5h1M0 6h1M14 6h1M0 7h1M14 7h1M0 8h1M14 8h4M0 9h1M13 9h1M18 9h1M1 10h1M14 10h1M19 10h1M2 11h1M12 11h1M15 11h1M20 11h1M3 12h1M11 12h1M20 12h1M4 13h7M20 13h1M7 14h1M9 14h1M20 14h1M7 15h1M10 15h1M20 15h1M7 16h1M11 16h3M20 16h1M7 17h1M19 17h1M8 18h1M18 18h1M20 18h1M9 19h1M17 19h2M21 19h1M10 20h7M19 20h1M21 20h1M20 21h2" />
<path stroke="#fca570" d="M4 1h7M3 2h1M11 2h1M2 3h1M12 3h1M1 4h1M12 4h1M1 5h1M12 5h1M1 6h1M12 6h1M1 7h1M12 7h1M1 8h1M1 9h1M2 10h1M13 10h1M13 11h1M14 12h1M19 12h1M15 13h1M19 13h1M19 14h1M19 15h1M17 18h1M15 19h2" />
<path stroke="#b8451c" d="M4 2h1M10 2h1M3 3h1M11 3h1M2 4h1M13 4h1M13 5h1M13 6h1M13 7h1M13 8h1M2 9h1M10 9h1M12 9h1M16 9h1M3 10h1M9 10h1M11 10h1M16 10h2M10 11h1M16 11h3M11 13h2M12 14h2M13 15h2M8 16h1M9 17h1M11 17h3M10 18h5" />
<path stroke="#f0641f" d="M5 2h5M4 3h7M3 4h9M2 5h10M2 6h10M2 7h10M2 8h10M3 9h7M17 9h1M4 10h5M18 10h1M19 11h1M12 12h2M17 12h2M13 13h2M17 13h2M14 14h2M17 14h2M16 15h3M15 16h4M14 17h4M15 18h2M10 19h5" />
<path stroke="#ffe0b8" d="M12 8h1M11 9h1M10 10h1M3 11h7M14 11h1M15 12h1M19 16h1M18 17h1" />
<path stroke="#612821" d="M14 9h2M12 10h1M15 10h1M11 11h1M4 12h7M16 12h1M16 13h1M8 14h1M10 14h2M16 14h1M8 15h2M11 15h2M15 15h1M9 16h2M14 16h1M8 17h1M10 17h1M9 18h1" />
<path stroke="#807a7a" d="M19 18h1" />
<path stroke="#a69e9b" d="M19 19h1M20 20h1" />
<path stroke="#ecebe7" d="M20 19h1" />
</svg>