<svg xmlns="http://www.w3.org/2000/svg" viewBox="4.5 3.5 17 20">
    <path d="M20.5833 6.5V5.41667H19.4999V4.33333H18.4166V3.25H7.58325V4.33333H6.49992V5.41667H5.41659V6.5H4.33325V17.3333H5.41659V18.4167H6.49992V19.5H7.58325V20.5833H16.2499V22.75H17.3333V23.8333H20.5833V21.6667H19.4999V20.5833H18.4166V19.5H19.4999V18.4167H20.5833V17.3333H21.6666V6.5H20.5833ZM19.4999 15.1667H18.4166V16.25H17.3333V17.3333H16.2499V18.4167H9.74992V17.3333H8.66659V16.25H7.58325V15.1667H6.49992V8.66667H7.58325V7.58333H8.66659V6.5H9.74992V5.41667H16.2499V6.5H17.3333V7.58333H18.4166V8.66667H19.4999V15.1667Z"/>
</svg>